<svg width="800" height="800" viewBox="0 0 800 800" fill="none" xmlns="http://www.w3.org/2000/svg">
<path d="M46.562 770.438C60.7495 785.813 119.187 759 165.312 737.5C199.874 721.438 338.187 664.688 406.937 635.25C425.499 627.313 452.499 616.938 471.937 591.375C489.187 568.625 534.937 472 442.812 374.125C349.312 274.75 252.999 302.187 216.999 327.687C195.812 342.687 178.562 376.5 170.812 393.688C138.062 466.313 91.3745 599.375 72.3745 651.688C58.437 690.25 32.4994 755.188 46.562 770.438Z" fill="#FFC107"/>
<path d="M161.564 415.562C162.439 426.438 164.626 444.125 172.126 478.188C177.251 501.563 185.626 526.063 192.439 542.25C212.876 590.938 241.564 610.563 270.626 626.313C320.001 653.063 353.564 658.063 353.564 658.063L313.314 674.5C313.314 674.5 288.939 669.437 255.689 653.062C224.001 637.438 191.001 611 166.876 559.25C156.439 536.813 150.376 515.063 146.876 497.813C142.564 476.438 141.876 464.313 141.876 464.313L161.564 415.562Z" fill="#FF8F00"/>
<path d="M112.126 542.312C112.126 542.312 117.126 582.875 150.626 634.063C189.876 693.938 244.689 703.75 244.689 703.75L208.251 718.75C208.251 718.75 167.564 706.313 128.876 653.5C104.751 620.563 98.0011 581.188 98.0011 581.188L112.126 542.312Z" fill="#FF8F00"/>
<path d="M77.4376 638.438C77.4376 638.438 86.5626 673.437 106.563 699.562C130.375 730.75 160.688 739.813 160.688 739.813L132.75 752.187C132.75 752.187 111.563 747.75 88.3751 718.375C70.7501 696.063 65.7501 670.437 65.7501 670.437L77.4376 638.438Z" fill="#FF8F00"/>
<path opacity="0.44" d="M62.2488 727.313C60.9988 724.5 60.9988 721.312 62.3113 718.562L221.499 388.438L247.686 486.875L80.1863 728.812C75.6863 735.562 65.5613 734.688 62.2488 727.313Z" fill="#FFFDE7"/>
<path d="M260.313 519.938C334.688 606.938 419.375 596.062 447.563 574.062C475.813 552 498.125 476.187 424.063 390.625C346.438 301 258.563 326.562 238.25 345.937C217.938 365.312 192.063 440.125 260.313 519.938Z" fill="url(#paint0_linear_7_2)"/>
<path d="M515.75 555.75C488.625 533 474.187 537.063 454.812 545.125C429.812 555.5 390.5 563.188 337.125 545.125L353.187 506.438C384.875 517.125 407.812 511.938 427.625 500.25C453.125 485.25 488 464.688 542.25 510.25C564.875 529.25 588.062 541.875 605.062 536.125C617.437 532 624 513.563 627.313 498.875C627.625 497.563 628.125 493.813 628.5 490.5C631.5 467.563 636.5 418.063 673.375 392.75C712.812 365.688 754.25 365.688 754.25 365.688L761.75 440.188C742.688 437.375 729.437 441.25 718.25 447.437C676.125 470.875 712.812 560.875 647.25 591.125C584.187 620.438 532.625 569.875 515.75 555.75Z" fill="#03A9F4"/>
<path d="M283.746 460.75L256.621 436.438C306.433 380.813 293.308 339.938 283.746 310.188C281.808 304.188 279.996 298.5 278.808 293.062C274.558 273.812 273.683 257.063 274.996 242.438C255.871 218.625 247.433 193.687 246.871 192C235.246 156.812 243.996 122.5 264.058 90.3125C304.621 25 378.058 25 378.058 25L402.558 90.5625C383.933 89.8125 322.871 90.75 304.121 120.312C280.433 157.563 295.996 180.562 297.121 183.187C301.683 177.25 306.308 172.5 310.433 168.813C340.371 142.25 366.371 138.437 382.933 139.937C401.558 141.625 418.433 151 430.496 166.375C443.683 183.25 449.121 205.188 444.933 225.125C440.871 244.563 427.933 261 408.496 271.438C374.558 289.688 346.308 287.187 327.371 280.875C327.496 281.312 327.558 281.812 327.683 282.25C328.371 285.375 329.746 289.75 331.371 294.812C342.433 329.062 362.996 383.438 283.746 460.75ZM329.683 226.187C333.308 228.812 337.121 231 341.058 232.562C354.183 237.812 368.496 236.062 384.746 227.312C394.308 222.187 395.433 216.688 395.808 214.875C396.933 209.438 395.058 202.5 390.996 197.312C387.433 192.75 383.308 190.375 378.371 189.875C368.996 189.062 356.308 195 343.621 206.312C337.558 211.75 332.933 218.437 329.683 226.187Z" fill="#F44336"/>
<path d="M274.943 242.438C273.755 256.188 273.193 264.375 276.755 282.25C293.943 294.875 331.38 294.875 331.38 294.875C329.755 289.812 328.318 285.437 327.693 282.312C327.568 281.875 327.505 281.375 327.38 280.937C289.318 261.937 274.943 242.438 274.943 242.438Z" fill="#C92B27"/>
<path d="M197.063 304L132.438 272.312L164.625 225.812L215.313 259.375L197.063 304Z" fill="#FFC107"/>
<path d="M101.813 216.25C68.8125 211.812 35.1875 183.813 31.5 180.625L63.9375 142.562C73.75 150.875 94.5625 164.813 108.5 166.688L101.813 216.25Z" fill="#FB8C00"/>
<path d="M160.063 132.938L112.562 117.375C118 100.75 119.437 82.8125 116.625 65.5L166 57.5625C170.062 82.6875 168 108.75 160.063 132.938Z" fill="#03A9F4"/>
<path d="M577.875 111.062L543.5 74.75C561.5 57.6875 565.625 35.375 565.625 35.125L615 43.1875C614.375 47.125 608.062 82.5 577.875 111.062Z" fill="#FFC107"/>
<path d="M596.975 303.631L640.644 289.987L655.562 337.712L611.894 351.356L596.975 303.631Z" fill="#FB8C00"/>
<path d="M609.688 706.437L560 700.562C562.125 682.875 548.937 661.187 545.312 656.375L585.313 626.375C588.313 630.312 614.375 666.375 609.688 706.437Z" fill="#F44336"/>
<path d="M752.313 643.063C733.625 640.25 714.5 639.125 695.625 639.813L693.938 589.813C715.875 589.063 738.062 590.313 759.75 593.625L752.313 643.063Z" fill="#FB8C00"/>
<path d="M685.087 711.888L720.212 676.306L768.562 724.038L733.431 759.619L685.087 711.888Z" fill="#F48FB1"/>
<path d="M238.846 559.345L143.463 465.3L178.947 429.311C188.196 419.931 197.826 413.861 207.838 411.104C217.849 408.167 228.063 408.543 238.479 412.231C248.805 415.83 259.109 422.699 269.392 432.837C279.674 442.976 286.733 453.226 290.568 463.589C294.313 473.863 294.833 484.07 292.128 494.211C289.512 504.261 283.579 513.976 274.33 523.357L238.846 559.345ZM243.208 511.082L250.945 503.235C256.992 497.101 259.32 490.681 257.93 483.973C256.539 477.265 251.288 469.42 242.178 460.438C233.068 451.456 225.195 446.361 218.558 445.154C211.832 443.858 205.445 446.276 199.397 452.41L191.66 460.257L243.208 511.082ZM359.73 439.99C347.457 452.437 335.23 458.614 323.048 458.521C310.775 458.339 298.145 451.845 285.157 439.039L226.438 381.144L252.718 354.49L311.842 412.785C317.254 418.121 322.023 421.223 326.149 422.089C330.274 422.777 334.071 421.361 337.539 417.844C341.097 414.236 342.458 410.42 341.623 406.395C340.789 402.37 337.621 397.645 332.119 392.221L272.994 333.926L298.74 307.813L357.459 365.708C370.537 378.603 377.254 391.096 377.608 403.185C377.962 415.274 372.002 427.543 359.73 439.99ZM400.263 395.632L304.88 301.587L323.956 282.239L418.825 303.469L411.488 310.91L352.77 253.016L376.915 228.527L472.298 322.573L453.222 341.92L358.353 320.69L365.69 313.249L424.408 371.144L400.263 395.632ZM521.129 276.295C512.325 285.224 502.781 290.934 492.498 293.425C482.304 295.826 471.865 295.139 461.179 291.363C450.493 287.407 440.008 280.361 429.726 270.222C419.443 260.084 412.339 249.7 408.412 239.069C404.395 228.349 403.56 217.92 405.907 207.782C408.253 197.465 413.828 187.842 422.632 178.912C428.146 173.32 434.027 168.979 440.275 165.89C446.432 162.711 452.645 161.01 458.914 160.787L473.215 188.228C467.846 188.983 463.063 190.315 458.867 192.226C454.671 194.137 451.016 196.67 447.904 199.827C442.123 205.69 439.973 212.02 441.455 218.817C442.934 225.434 448.229 233.234 457.339 242.216C466.449 251.198 474.368 256.427 481.096 257.902C487.913 259.287 494.212 257.048 499.993 251.185C503.105 248.029 505.543 244.384 507.305 240.251C509.156 236.028 510.421 231.227 511.099 225.849L538.873 239.625C538.65 245.986 537.037 252.312 534.036 258.603C530.945 264.805 526.643 270.702 521.129 276.295ZM549.956 243.811L454.572 149.765L511.667 91.8583L532.096 112.001L499.947 144.608L516.318 160.749L545.933 130.713L566.362 150.856L536.748 180.892L554.472 198.367L586.621 165.761L607.05 185.904L549.956 243.811ZM342.81 661.851L247.427 567.806L287.313 527.352C293.271 521.309 299.603 517.413 306.308 515.664C313.103 513.824 320.046 514.089 327.139 516.457C334.141 518.736 340.935 523.122 347.519 529.614C354.013 536.017 358.495 542.748 360.963 549.807C363.341 556.776 363.658 563.671 361.915 570.49C360.261 577.22 356.454 583.606 350.496 589.649L336.889 603.449L369.09 635.198L342.81 661.851ZM316.46 583.306L325.131 574.512C327.887 571.716 329.075 568.617 328.692 565.217C328.22 561.727 326.225 558.248 322.707 554.779C319.189 551.311 315.683 549.365 312.186 548.942C308.69 548.519 305.564 549.705 302.807 552.501L294.136 561.296L316.46 583.306ZM395.856 608.051L337.29 476.664L357.834 455.828L490.035 512.533L463.755 539.186L429.641 521.826L445.885 519.965L402.397 564.072L404.029 547.803L421.868 581.669L395.856 608.051ZM375.437 494.264L399.808 539.906L390.507 535.538L417.053 508.614L421.552 517.853L375.57 494.128L375.437 494.264ZM486.38 516.239L390.997 422.194L430.482 382.146C439.465 373.036 449.286 368.578 459.946 368.771C470.606 368.965 480.626 373.686 490.007 382.935C496.411 389.249 500.757 395.847 503.044 402.727C505.421 409.518 505.693 416.278 503.859 423.009C502.026 429.74 498.13 436.127 492.172 442.17L490.935 438.282L498.405 430.706C501.696 427.368 505.578 425.326 510.051 424.577C514.524 423.829 519.365 424.512 524.575 426.625L560.549 441.015L531.469 470.51L489.972 454.143C488.445 453.527 487.099 453.178 485.934 453.096C484.768 452.836 483.738 452.888 482.845 453.253C481.951 453.438 481.103 453.937 480.303 454.748L478.836 456.237L512.659 489.586L486.38 516.239ZM460.029 437.694L468.3 429.306C471.146 426.42 472.422 423.231 472.129 419.74C471.745 416.16 469.75 412.591 466.142 409.034C462.624 405.565 459.118 403.709 455.623 403.465C452.038 403.132 448.822 404.409 445.976 407.295L437.706 415.684L460.029 437.694ZM576.161 425.181L502.56 352.613L480.416 375.072L458.634 353.595L529.201 282.023L550.984 303.5L528.84 325.959L602.441 398.528L576.161 425.181ZM646.65 353.69L598.077 305.531L618.024 314.527L521.919 289.409L552.067 258.833L600.827 276.492L596.025 281.362L577.812 232.721L606.893 203.226L633.632 298.697L624.356 278.878L672.929 327.037L646.65 353.69Z" fill="white"/>
<path fill-rule="evenodd" clip-rule="evenodd" d="M224.562 322.845C221.81 324.445 219.283 326.07 217 327.688C195.812 342.688 178.562 376.5 170.812 393.688C142.865 455.662 104.768 561.648 82.3889 623.909C78.543 634.608 75.1612 644.016 72.3749 651.688C71.0344 655.397 69.5829 659.35 68.0666 663.479C53.818 702.282 33.8525 756.654 46.5624 770.438C60.7499 785.813 119.187 759 165.312 737.5C186.153 727.815 244.714 703.336 303.002 678.972L303.01 678.969C341.386 662.928 379.644 646.937 406.937 635.25C408.021 634.787 409.133 634.315 410.271 633.833C428.626 626.05 453.635 615.446 471.937 591.375C476.229 585.716 482.284 575.485 487.541 561.8L467.881 543.936C462.888 557.535 455.457 567.897 447.563 574.063C419.376 596.063 334.688 606.938 260.313 519.938C192.063 440.125 217.938 365.313 238.251 345.938C239.929 344.336 242.069 342.693 244.627 341.076L224.562 322.845Z" fill="#FFC107"/>
<path d="M161.564 415.563C162.439 426.438 164.626 444.125 172.126 478.188C177.251 501.563 185.626 526.063 192.439 542.25C212.876 590.938 241.564 610.563 270.626 626.313C320.001 653.063 353.564 658.063 353.564 658.063L313.314 674.5C313.314 674.5 288.939 669.438 255.689 653.063C224.001 637.438 191.001 611 166.876 559.25C156.439 536.813 150.376 515.063 146.876 497.813C142.564 476.438 141.876 464.313 141.876 464.313L161.564 415.563Z" fill="#FF8F00"/>
<path d="M112.126 542.313C112.126 542.313 117.126 582.875 150.626 634.063C189.876 693.938 244.689 703.75 244.689 703.75L208.251 718.75C208.251 718.75 167.564 706.313 128.876 653.5C104.751 620.563 98.0011 581.188 98.0011 581.188L112.126 542.313Z" fill="#FF8F00"/>
<path d="M77.4376 638.438C77.4376 638.438 86.5626 673.437 106.563 699.562C130.375 730.75 160.688 739.813 160.688 739.813L132.75 752.187C132.75 752.187 111.563 747.75 88.3751 718.375C70.7501 696.063 65.7501 670.437 65.7501 670.437L77.4376 638.438Z" fill="#FF8F00"/>
<path opacity="0.44" fill-rule="evenodd" clip-rule="evenodd" d="M216.839 398.102C213.837 424.922 218.895 458.959 241.924 495.198L80.1864 728.812C75.6864 735.562 65.5614 734.688 62.2489 727.313C60.9989 724.5 60.9989 721.313 62.3114 718.563L216.839 398.102Z" fill="#FFFDE7"/>
<path d="M456.706 95.7813L505.55 85.0938L519.656 149.569L470.813 160.256L456.706 95.7813Z" fill="#FB8C00"/>
<path d="M581.869 395.819L617.994 437.125L576.687 473.25L540.562 431.944L581.869 395.819Z" fill="#F44336"/>
<circle cx="515" cy="740" r="50" fill="#D9D9D9"/>
<path fill-rule="evenodd" clip-rule="evenodd" d="M262.995 429C260.998 431.449 258.88 433.928 256.633 436.438L283.758 460.75C295.084 449.701 304.371 439.12 311.939 429H262.995ZM345 284.86C362.251 286.997 383.882 284.68 408.508 271.438C427.945 261 440.883 244.562 444.945 225.125C449.133 205.188 443.695 183.25 430.508 166.375C418.445 151 401.57 141.625 382.945 139.938C373.194 139.054 360.171 140.013 345 146.371V205.114C357.228 194.582 369.345 189.092 378.383 189.875C383.32 190.375 387.445 192.75 391.008 197.312C395.07 202.5 396.945 209.438 395.82 214.875L395.819 214.883C395.442 216.704 394.306 222.195 384.758 227.312C370.115 235.197 357.045 237.398 345 233.915V284.86ZM345 95.9267C367.512 90.256 391.946 90.1347 402.57 90.5625L378.07 25C378.07 25 364.11 25 345 30.4135V95.9267Z" fill="#F44336"/>
<path d="M392.312 470.937L353.5 469.875C353.5 469.875 371.937 365.75 431.625 348.25C442.812 345 455.062 341.688 467.375 339.875C474.687 338.75 486.25 337.062 491.937 334.937C493.25 325.125 489.125 312.625 484.5 298.437C480.875 287.437 477.125 276.125 475.125 263.75C471.25 239.625 477.687 218.313 493.25 203.625C512.25 185.813 542.938 180.125 577.563 188C597.313 192.5 611.875 202.187 624.687 210.687C643 222.875 653.687 229.063 676.062 214C703.125 195.75 667.75 124.313 648.938 83.0625L719.125 53.8125C728.562 74.4375 774.125 180.563 744.063 241.125C733.938 261.5 716.5 275 693.625 280.063C643.875 291.188 614.75 271.812 593.5 257.687C583.437 251 574.625 245.75 565.063 243C498.625 224.063 591.375 321.812 547.937 365.75C521.875 392.062 458.188 399 454.063 400C413.063 409.875 392.312 470.937 392.312 470.937Z" fill="#F48FB1"/>
<defs>
<linearGradient id="paint0_linear_7_2" x1="464.9" y1="386.494" x2="278.856" y2="498.119" gradientUnits="userSpaceOnUse">
<stop offset="0.024" stop-color="#8F4700"/>
<stop offset="1" stop-color="#703E2D"/>
</linearGradient>
</defs>
</svg>
