<svg xmlns="http://www.w3.org/2000/svg" viewBox="0 0 100 125" xml:space="preserve"><path d="M57.334 54.422c-1.1 0-2-.9-2-2V16.421c0-1.1.9-2 2-2h36c1.1 0 2 .9 2 2v36.001c0 1.1-.46 2.773-1.021 3.719L77.836 83.859c-.562.945-1.921 1.678-3.02 1.627l-9.645-.441c-1.099-.051-1.793-.968-1.543-2.039l6.223-26.639c.25-1.071-.445-1.947-1.545-1.947l-10.972.002zM6.666 54.422c-1.1 0-2-.9-2-2V16.421c0-1.1.9-2 2-2h36c1.1 0 2 .9 2 2v36.001c0 1.1-.46 2.773-1.022 3.72L27.169 83.859c-.562.946-1.921 1.679-3.02 1.628l-9.645-.441c-1.099-.051-1.793-.968-1.543-2.039l6.223-26.64c.25-1.071-.445-1.947-1.545-1.947l-10.973.002z"/></svg>